<?xml version="1.0" encoding="UTF-8" standalone="no"?>
<!-- Generator: Adobe Illustrator 18.1.1, SVG Export Plug-In . SVG Version: 6.00 Build 0)  -->

<svg
   xmlns:dc="http://purl.org/dc/elements/1.1/"
   xmlns:cc="http://creativecommons.org/ns#"
   xmlns:rdf="http://www.w3.org/1999/02/22-rdf-syntax-ns#"
   xmlns:svg="http://www.w3.org/2000/svg"
   xmlns="http://www.w3.org/2000/svg"
   xmlns:sodipodi="http://sodipodi.sourceforge.net/DTD/sodipodi-0.dtd"
   xmlns:inkscape="http://www.inkscape.org/namespaces/inkscape"
   version="1.1"
   id="Capa_1"
   x="0px"
   y="0px"
   viewBox="0 0 456.551 456.551"
   style="enable-background:new 0 0 456.551 456.551;"
   xml:space="preserve"
   sodipodi:docname="backward.svg"
   inkscape:version="0.92.4 5da689c313, 2019-01-14"><metadata
   id="metadata985"><rdf:RDF><cc:Work
       rdf:about=""><dc:format>image/svg+xml</dc:format><dc:type
         rdf:resource="http://purl.org/dc/dcmitype/StillImage" /><dc:title></dc:title></cc:Work></rdf:RDF></metadata><defs
   id="defs983" /><sodipodi:namedview
   pagecolor="#ffffff"
   bordercolor="#666666"
   borderopacity="1"
   objecttolerance="10"
   gridtolerance="10"
   guidetolerance="10"
   inkscape:pageopacity="0"
   inkscape:pageshadow="2"
   inkscape:window-width="1366"
   inkscape:window-height="720"
   id="namedview981"
   showgrid="false"
   inkscape:zoom="1.1827813"
   inkscape:cx="228.2755"
   inkscape:cy="228.2755"
   inkscape:window-x="0"
   inkscape:window-y="24"
   inkscape:window-maximized="1"
   inkscape:current-layer="Capa_1" />
<g
   id="g948"
   transform="rotate(180,228.2755,228.27527)"
   style="fill:#d56c6d;fill-opacity:1">
	<path
   d="m 16.195,456.551 c -1.937,0 -3.882,-0.42 -5.693,-1.266 -4.721,-2.21 -7.735,-6.952 -7.735,-12.162 v -429.7 c 0,-5.21 3.014,-9.952 7.735,-12.162 4.7,-2.196 10.281,-1.49 14.288,1.846 l 257.82,214.85 c 3.063,2.553 4.833,6.329 4.833,10.316 0,3.986 -1.769,7.763 -4.833,10.316 L 24.79,453.439 c -2.461,2.049 -5.51,3.112 -8.595,3.112 z M 29.624,42.091 V 414.455 L 253.041,228.273 Z"
   id="path944"
   inkscape:connector-curvature="0"
   style="fill:#d56c6d;fill-opacity:1" />
	<path
   d="m 182.536,456.551 c -1.937,0 -3.882,-0.42 -5.693,-1.266 -4.721,-2.21 -7.735,-6.952 -7.735,-12.162 v -66.532 c 0,-7.413 6.015,-13.428 13.428,-13.428 7.413,0 13.428,6.015 13.428,13.428 v 37.865 L 419.381,228.274 195.964,42.091 v 37.864 c 0,7.413 -6.015,13.428 -13.428,13.428 -7.413,0 -13.428,-6.015 -13.428,-13.428 V 13.424 c 0,-5.21 3.014,-9.952 7.735,-12.162 4.693,-2.196 10.281,-1.49 14.288,1.846 l 257.82,214.85 c 3.063,2.553 4.833,6.329 4.833,10.316 0,3.986 -1.769,7.763 -4.833,10.316 l -257.82,214.85 c -2.461,2.048 -5.511,3.111 -8.595,3.111 z"
   id="path946"
   inkscape:connector-curvature="0"
   style="fill:#d56c6d;fill-opacity:1" />
</g>
<g
   id="g950">
</g>
<g
   id="g952">
</g>
<g
   id="g954">
</g>
<g
   id="g956">
</g>
<g
   id="g958">
</g>
<g
   id="g960">
</g>
<g
   id="g962">
</g>
<g
   id="g964">
</g>
<g
   id="g966">
</g>
<g
   id="g968">
</g>
<g
   id="g970">
</g>
<g
   id="g972">
</g>
<g
   id="g974">
</g>
<g
   id="g976">
</g>
<g
   id="g978">
</g>
</svg>