<?xml version="1.0" encoding="UTF-8" standalone="no"?>
<!-- Generator: Adobe Illustrator 19.1.0, SVG Export Plug-In . SVG Version: 6.00 Build 0)  -->

<svg
   xmlns:dc="http://purl.org/dc/elements/1.1/"
   xmlns:cc="http://creativecommons.org/ns#"
   xmlns:rdf="http://www.w3.org/1999/02/22-rdf-syntax-ns#"
   xmlns:svg="http://www.w3.org/2000/svg"
   xmlns="http://www.w3.org/2000/svg"
   xmlns:sodipodi="http://sodipodi.sourceforge.net/DTD/sodipodi-0.dtd"
   xmlns:inkscape="http://www.inkscape.org/namespaces/inkscape"
   version="1.1"
   id="Capa_1"
   x="0px"
   y="0px"
   viewBox="0 0 319.982 319.982"
   style="enable-background:new 0 0 319.982 319.982;"
   xml:space="preserve"
   sodipodi:docname="up-arrow.svg"
   inkscape:version="0.92.4 5da689c313, 2019-01-14"><metadata
   id="metadata41"><rdf:RDF><cc:Work
       rdf:about=""><dc:format>image/svg+xml</dc:format><dc:type
         rdf:resource="http://purl.org/dc/dcmitype/StillImage" /></cc:Work></rdf:RDF></metadata><defs
   id="defs39" /><sodipodi:namedview
   pagecolor="#ffffff"
   bordercolor="#666666"
   borderopacity="1"
   objecttolerance="10"
   gridtolerance="10"
   guidetolerance="10"
   inkscape:pageopacity="0"
   inkscape:pageshadow="2"
   inkscape:window-width="1354"
   inkscape:window-height="708"
   id="namedview37"
   showgrid="false"
   inkscape:zoom="0.7375415"
   inkscape:cx="159.991"
   inkscape:cy="159.991"
   inkscape:window-x="6"
   inkscape:window-y="30"
   inkscape:window-maximized="0"
   inkscape:current-layer="Capa_1" />
<g
   id="g4"
   style="fill:#d56c6d;fill-opacity:1"
   transform="rotate(180,159.991,159.991)">
	<path
   style="fill:#d56c6d;fill-opacity:1"
   d="m 234.991,319.982 c 2.618,0 5.22,-1.078 7.071,-2.929 1.851,-1.851 2.929,-4.453 2.929,-7.071 v -140 h 65 c 3.922,-0.008 7.721,-2.552 9.221,-6.176 1.5,-3.624 0.61,-8.109 -2.159,-10.886 l -150,-150 C 165.202,1.074 162.604,0 159.991,0 c -2.614,0 -5.212,1.074 -7.062,2.92 l -150,150 c -2.769,2.777 -3.659,7.263 -2.159,10.886 1.5,3.624 5.299,6.168 9.221,6.176 h 65 v 140 c 0,2.618 1.078,5.22 2.929,7.071 1.851,1.851 4.453,2.929 7.071,2.929 z"
   id="path2"
   inkscape:connector-curvature="0" />
</g>
<g
   id="g6">
</g>
<g
   id="g8">
</g>
<g
   id="g10">
</g>
<g
   id="g12">
</g>
<g
   id="g14">
</g>
<g
   id="g16">
</g>
<g
   id="g18">
</g>
<g
   id="g20">
</g>
<g
   id="g22">
</g>
<g
   id="g24">
</g>
<g
   id="g26">
</g>
<g
   id="g28">
</g>
<g
   id="g30">
</g>
<g
   id="g32">
</g>
<g
   id="g34">
</g>
</svg>