<?xml version="1.0" encoding="UTF-8" standalone="no"?>
<!-- Generator: Adobe Illustrator 19.0.0, SVG Export Plug-In . SVG Version: 6.00 Build 0)  -->

<svg
   xmlns:dc="http://purl.org/dc/elements/1.1/"
   xmlns:cc="http://creativecommons.org/ns#"
   xmlns:rdf="http://www.w3.org/1999/02/22-rdf-syntax-ns#"
   xmlns:svg="http://www.w3.org/2000/svg"
   xmlns="http://www.w3.org/2000/svg"
   xmlns:sodipodi="http://sodipodi.sourceforge.net/DTD/sodipodi-0.dtd"
   xmlns:inkscape="http://www.inkscape.org/namespaces/inkscape"
   version="1.1"
   id="Capa_1"
   x="0px"
   y="0px"
   viewBox="0 0 50.5 50.5"
   style="enable-background:new 0 0 50.5 50.5;"
   xml:space="preserve"
   sodipodi:docname="play_btn.svg"
   inkscape:version="0.92.4 5da689c313, 2019-01-14"><metadata
   id="metadata1147"><rdf:RDF><cc:Work
       rdf:about=""><dc:format>image/svg+xml</dc:format><dc:type
         rdf:resource="http://purl.org/dc/dcmitype/StillImage" /><dc:title></dc:title></cc:Work></rdf:RDF></metadata><defs
   id="defs1145" /><sodipodi:namedview
   pagecolor="#ffffff"
   bordercolor="#666666"
   borderopacity="1"
   objecttolerance="10"
   gridtolerance="10"
   guidetolerance="10"
   inkscape:pageopacity="0"
   inkscape:pageshadow="2"
   inkscape:window-width="1354"
   inkscape:window-height="708"
   id="namedview1143"
   showgrid="false"
   inkscape:zoom="4.6732673"
   inkscape:cx="-8.6663136"
   inkscape:cy="25.25"
   inkscape:window-x="6"
   inkscape:window-y="30"
   inkscape:window-maximized="0"
   inkscape:current-layer="Capa_1" />
<g
   id="g1110"
   style="fill:#d56c6d;fill-opacity:1">
	<path
   d="M25.25,0c-4.217,0-8.391,1.061-12.073,3.069c-0.485,0.265-0.664,0.872-0.399,1.357c0.265,0.484,0.87,0.664,1.357,0.399   C17.524,2.977,21.367,2,25.25,2C38.07,2,48.5,12.43,48.5,25.25S38.07,48.5,25.25,48.5S2,38.07,2,25.25   c0-6.261,2.455-12.135,6.913-16.539C9.306,8.323,9.31,7.69,8.922,7.297C8.533,6.904,7.9,6.901,7.508,7.289   C2.667,12.071,0,18.45,0,25.25C0,39.173,11.327,50.5,25.25,50.5c13.923,0,25.25-11.327,25.25-25.25C50.5,11.327,39.173,0,25.25,0z"
   id="path1106"
   style="fill:#d56c6d;fill-opacity:1" />
	<path
   d="M16.446,39.671c0.195,0.277,0.504,0.425,0.819,0.425c0.199,0,0.399-0.059,0.574-0.182l19.682-13.846   c0.267-0.188,0.425-0.492,0.425-0.818s-0.158-0.63-0.425-0.818L17.839,10.586c-0.305-0.215-0.705-0.242-1.036-0.07   c-0.331,0.172-0.539,0.514-0.539,0.888v18.929c0,0.552,0.448,1,1,1c0.552,0,1-0.448,1-1V13.33l16.944,11.92L16.688,38.278   C16.237,38.596,16.128,39.22,16.446,39.671z"
   id="path1108"
   style="fill:#d56c6d;fill-opacity:1" />
</g>
<g
   id="g1112">
</g>
<g
   id="g1114">
</g>
<g
   id="g1116">
</g>
<g
   id="g1118">
</g>
<g
   id="g1120">
</g>
<g
   id="g1122">
</g>
<g
   id="g1124">
</g>
<g
   id="g1126">
</g>
<g
   id="g1128">
</g>
<g
   id="g1130">
</g>
<g
   id="g1132">
</g>
<g
   id="g1134">
</g>
<g
   id="g1136">
</g>
<g
   id="g1138">
</g>
<g
   id="g1140">
</g>
</svg>